<svg id="Layer_2" data-name="Layer 2" xmlns="http://www.w3.org/2000/svg" viewBox="0 0 2725.72 2957"><defs><style>.cls-1{fill:#fff;}</style></defs><title>ja-logo (white)</title><polygon class="cls-1" points="1649.57 1.07 1911.49 720.68 1761.85 1131.82 1533.76 505.12 1385.3 97.25 1506.64 53.09 1533.76 43.22 1649.21 1.2 1649.57 1.07"/><polygon class="cls-1" points="2690.36 2860.61 2431.15 2954.94 2426.09 2956.79 1998.18 1781.12 2147.82 1370.01 2684.75 2845.2 2690.36 2860.61"/><polygon class="cls-1" points="444.44 2675.77 743.71 2675.77 641.43 2956.79 377.16 2860.61 444.44 2675.77"/><polygon class="cls-1" points="1682.22 97.25 1533.76 505.12 773.64 2593.54 474.37 2593.54 1417.95 1.07 1418.11 1.12 1418.16 1.15 1533.76 43.22 1563.61 54.08 1682.22 97.25"/><polygon class="cls-1" points="2387.29 469.04 2386.34 471.67 1481.84 2956.75 1481.82 2956.79 1480.38 2956.26 1319.58 2897.74 1217.55 2860.61 1223.09 2845.4 1223.24 2844.99 1284.83 2675.77 2122.82 373.39 2123.02 372.85 2124.34 373.32 2387.29 469.04"/><polygon class="cls-1" points="1194.67 2675.77 1092.33 2957 0 2957 102.36 2675.77 1194.67 2675.77"/><polygon class="cls-1" points="1319.58 2675.77 1319.58 2957 1181.43 2957 1223.09 2845.4 1223.24 2844.99 1284.83 2675.77 1319.58 2675.77"/><polygon class="cls-1" points="1418.1 1.12 1649.34 1.12 1536.67 70.72 1418.1 1.12"/><polygon class="cls-1" points="2386.33 471.67 2423.11 373.32 2123.79 373.32 2386.33 471.67"/><polygon class="cls-1" points="1482.4 2957 1181.43 2957 1223.09 2845.4 1223.24 2844.99 1319.58 2886.63 1480.42 2956.14 1481.84 2956.75 1482.4 2957"/><polygon class="cls-1" points="2684.75 2845.2 2725.72 2957 2426.4 2957 2684.75 2845.2"/><rect class="cls-1" x="2122.15" width="300.96" height="300.96"/></svg>